<?xml version="1.0" encoding="UTF-8"?>
<svg version="1.1" xmlns="http://www.w3.org/2000/svg" width="71" height="71">
<path d="M0 0 C23.43 0 46.86 0 71 0 C71 23.43 71 46.86 71 71 C47.57 71 24.14 71 0 71 C0 47.57 0 24.14 0 0 Z " fill="#329A6F" transform="translate(0,0)"/>
<path d="M0 0 C23.43 0 46.86 0 71 0 C71 23.43 71 46.86 71 71 C47.57 71 24.14 71 0 71 C0 47.57 0 24.14 0 0 Z M4 13 C2.31189115 16.3762177 2.79346442 20.20255706 2.76171875 23.91796875 C2.753647 24.80857498 2.74557526 25.69918121 2.73725891 26.61677551 C2.7234129 28.50564627 2.71269306 30.39454211 2.70483398 32.28344727 C2.68767097 35.15885632 2.64379615 38.03310061 2.59960938 40.90820312 C2.58947792 42.74478322 2.58096323 44.58137309 2.57421875 46.41796875 C2.55671066 47.27239059 2.53920258 48.12681244 2.52116394 49.00712585 C2.54215833 54.84757846 3.63438111 58.1981787 7 63 C12.27942931 67.77662652 15.75358092 68.1680957 22.69921875 68.203125 C23.56762894 68.20882507 24.43603912 68.21452515 25.33076477 68.22039795 C27.17256449 68.22985541 29.01438119 68.23638489 30.85620117 68.24023438 C33.65899764 68.24990169 36.4610488 68.28090168 39.26367188 68.3125 C41.05468315 68.31903401 42.84569967 68.32428292 44.63671875 68.328125 C45.46926682 68.3404718 46.30181488 68.3528186 47.15959167 68.36553955 C53.09454713 68.34310272 58.08221425 67.51217428 62.7421875 63.5 C65.67324417 59.61887669 67.10924799 56.83359022 67.17700195 51.9909668 C67.18983719 51.18970871 67.20267242 50.38845062 67.21589661 49.56291199 C67.22328354 48.70039322 67.23067047 47.83787445 67.23828125 46.94921875 C67.25038887 45.61187431 67.25038887 45.61187431 67.26274109 44.24751282 C67.27656906 42.36042214 67.28729697 40.47330658 67.29516602 38.58618164 C67.31237345 35.708662 67.35626988 32.83229319 67.40039062 29.95507812 C67.41051855 28.1198001 67.41903434 26.28451232 67.42578125 24.44921875 C67.45204338 23.16454964 67.45204338 23.16454964 67.47883606 21.85392761 C67.45915108 16.39895222 66.6151918 13.33549483 63 9 C58.78658165 5.10258803 55.61386667 3.90428183 49.96923828 3.82299805 C49.18807648 3.81016281 48.40691467 3.79732758 47.6020813 3.78410339 C46.7665976 3.77671646 45.93111389 3.76932953 45.0703125 3.76171875 C44.20236053 3.753647 43.33440857 3.74557526 42.44015503 3.73725891 C40.60611959 3.72344912 38.77205879 3.71271312 36.93798828 3.70483398 C35.06616668 3.69329959 33.19437835 3.67282475 31.32275391 3.64331055 C28.61338017 3.60059627 25.90498129 3.58446138 23.1953125 3.57421875 C22.36387726 3.55671066 21.53244202 3.53920258 20.67581177 3.52116394 C12.88729857 3.55009956 8.51771537 6.64173392 4 13 Z " fill="#F8FEFD" transform="translate(0,0)"/>
<path d="M0 0 C4.56713654 0.01627246 8.00459409 0.64107224 12.3125 2.1875 C13.3025 1.5275 14.2925 0.8675 15.3125 0.1875 C18.66796875 -0.0078125 18.66796875 -0.0078125 22.5 0.0625 C23.77230469 0.08054687 25.04460938 0.09859375 26.35546875 0.1171875 C27.33128906 0.14039062 28.30710938 0.16359375 29.3125 0.1875 C29.33715881 4.15680989 29.35534023 8.12609034 29.36743164 12.09545898 C29.37247057 13.44670386 29.37930177 14.79794326 29.38793945 16.14916992 C29.40002419 18.08770434 29.40519828 20.026278 29.41015625 21.96484375 C29.41539307 23.13265381 29.42062988 24.30046387 29.42602539 25.50366211 C29.3125 28.1875 29.3125 28.1875 28.3125 29.1875 C24.72086782 29.391828 21.13097463 29.50719912 17.53515625 29.61328125 C14.21676924 29.81481602 14.21676924 29.81481602 12.87109375 32.23046875 C12.68675781 32.87628906 12.50242187 33.52210937 12.3125 34.1875 C10.8275 33.6925 10.8275 33.6925 9.3125 33.1875 C8.8175 31.7025 8.8175 31.7025 8.3125 30.1875 C6.81396484 30.09662109 6.81396484 30.09662109 5.28515625 30.00390625 C3.99480469 29.92011719 2.70445313 29.83632813 1.375 29.75 C-0.55666016 29.62818359 -0.55666016 29.62818359 -2.52734375 29.50390625 C-5.6875 29.1875 -5.6875 29.1875 -6.6875 28.1875 C-6.78733058 26.19992972 -6.81830753 24.2088248 -6.8203125 22.21875 C-6.82160156 21.00832031 -6.82289062 19.79789063 -6.82421875 18.55078125 C-6.82035156 17.27589844 -6.81648438 16.00101563 -6.8125 14.6875 C-6.81636719 13.41261719 -6.82023437 12.13773438 -6.82421875 10.82421875 C-6.82292969 9.61378906 -6.82164063 8.40335938 -6.8203125 7.15625 C-6.81918457 6.03669922 -6.81805664 4.91714844 -6.81689453 3.76367188 C-6.58005765 -0.95161645 -4.17108469 0.02565243 0 0 Z " fill="#D8F2E9" transform="translate(23.6875,18.8125)"/>
<path d="M0 0 C8.3984375 -0.1953125 8.3984375 -0.1953125 11 0 C13 2 13 2 13.22705078 4.06298828 C13.21134033 5.30411377 13.21134033 5.30411377 13.1953125 6.5703125 C13.18564453 7.91416016 13.18564453 7.91416016 13.17578125 9.28515625 C13.15902344 10.22230469 13.14226563 11.15945312 13.125 12.125 C13.11597656 13.06988281 13.10695313 14.01476563 13.09765625 14.98828125 C13.07404668 17.32562827 13.03817494 19.66284549 13 22 C8.71 21.67 4.42 21.34 0 21 C0 14.07 0 7.14 0 0 Z " fill="#33986F" transform="translate(20,23)"/>
<path d="M0 0 C2.79947917 0.06510417 5.59895833 0.13020833 8.3984375 0.1953125 C8.3984375 7.1253125 8.3984375 14.0553125 8.3984375 21.1953125 C1.9634375 21.6903125 1.9634375 21.6903125 -4.6015625 22.1953125 C-4.65533191 18.90342981 -4.69512356 15.61241824 -4.7265625 12.3203125 C-4.74332031 11.38316406 -4.76007812 10.44601563 -4.77734375 9.48046875 C-4.78701172 8.13662109 -4.78701172 8.13662109 -4.796875 6.765625 C-4.80734863 5.93820801 -4.81782227 5.11079102 -4.82861328 4.25830078 C-4.46138154 0.92162526 -3.23901658 0.24316941 0 0 Z " fill="#32986E" transform="translate(41.6015625,22.8046875)"/>
<path d="M0 0 C0.99 0.33 1.98 0.66 3 1 C3.08720919 4.58317958 3.14046112 8.16608567 3.1875 11.75 C3.22520508 13.27367187 3.22520508 13.27367187 3.26367188 14.828125 C3.27333984 15.8078125 3.28300781 16.7875 3.29296875 17.796875 C3.3086792 18.69760742 3.32438965 19.59833984 3.34057617 20.52636719 C3 23 3 23 0 27 C0 18.09 0 9.18 0 0 Z " fill="#EFFEFC" transform="translate(17,20)"/>
<path d="M0 0 C0.99 0 1.98 0 3 0 C3 8.58 3 17.16 3 26 C2.67 24.68 2.34 23.36 2 22 C1.34 22 0.68 22 0 22 C0 14.74 0 7.48 0 0 Z " fill="#F0FEFC" transform="translate(50,21)"/>
<path d="M0 0 C1.93166016 0.01740234 1.93166016 0.01740234 3.90234375 0.03515625 C5.19269531 0.04417969 6.48304687 0.05320312 7.8125 0.0625 C8.81152344 0.07410156 9.81054688 0.08570312 10.83984375 0.09765625 C10.83984375 0.75765625 10.83984375 1.41765625 10.83984375 2.09765625 C9.84984375 2.09765625 8.85984375 2.09765625 7.83984375 2.09765625 C7.83984375 2.75765625 7.83984375 3.41765625 7.83984375 4.09765625 C4.53984375 4.09765625 1.23984375 4.09765625 -2.16015625 4.09765625 C-2.16015625 3.43765625 -2.16015625 2.77765625 -2.16015625 2.09765625 C-2.82015625 1.76765625 -3.48015625 1.43765625 -4.16015625 1.09765625 C-3.16015625 0.09765625 -3.16015625 0.09765625 0 0 Z " fill="#C7EBDE" transform="translate(42.16015625,18.90234375)"/>
</svg>
